<?xml version="1.0" standalone="no"?><!DOCTYPE svg PUBLIC "-//W3C//DTD SVG 1.1//EN" "http://www.w3.org/Graphics/SVG/1.1/DTD/svg11.dtd"><svg t="1625178336055" class="icon" viewBox="0 0 1024 1024" version="1.1" xmlns="http://www.w3.org/2000/svg" p-id="6349" xmlns:xlink="http://www.w3.org/1999/xlink" width="200" height="200"><defs><style type="text/css"></style></defs><path d="M884.873 507.713l134.107-232.367L867.95 13.693H565.84l-136.68 236.69H150.956L0 512.014 151.043 773.64h283.211l136.642 236.679h302.086l151.03-261.592-139.139-241.015zM594.616 63.593h244.507L961.376 275.31 839.123 487H594.616L472.4 275.31 594.616 63.593zM424.364 723.716H179.87L57.64 512.012 179.87 300.284h244.506L546.58 512.012 424.364 723.716z m419.779 236.679H599.636L477.433 748.728l122.203-211.765h244.507l122.203 211.765-122.203 211.667z" p-id="6350"></path><path d="M201.39 336.144L100.795 511.627l95.228 180.678 33.15-17.483-85.71-162.474 90.358-157.628z m692.168-53.18l31.461-20.205L811.352 85.723h-195.29v37.4H790.9z m-59.33 288.827l-32.953 17.644 86.493 161.331-86.145 146.868 32.231 18.998 96.856-165.058z" p-id="6351"></path></svg>